<svg xmlns="http://www.w3.org/2000/svg" viewBox="0 0 2908.36 332.62"><defs><style>.cls-1{fill:#5b7fa3;}.cls-2{fill:#fff;}.cls-3{fill:#9c7284;}.cls-4{fill:gray;}</style></defs><g id="Layer_2" data-name="Layer 2"><g id="Layer_2-2" data-name="Layer 2"><path class="cls-1" d="M333,35V297.59a35,35,0,0,1-35,35H35a35,35,0,0,1-35-35V35A35,35,0,0,1,35,0h262.9A35,35,0,0,1,333,35Z"/><path class="cls-2" d="M243.8,224.15a24.48,24.48,0,1,0-7.06,7.08L278.48,273H333V263H282.62Z"/><path class="cls-2" d="M274,44,237.11,80.82A24.53,24.53,0,1,0,244,88L278.1,54H333V44Z"/><path class="cls-2" d="M145.71,88.06a24.49,24.49,0,1,0,6.92-7.22L120.18,48.39V0h-10V52.53Z"/><path class="cls-2" d="M109.66,131.41a24.33,24.33,0,0,0-12.92,3.69L57.89,96.24H0v10H53.75L89.5,142a24.49,24.49,0,1,0,20.16-10.59Z"/><path class="cls-2" d="M166.48,131.41a24.49,24.49,0,1,0,24,29.56H333V151H190.47A24.49,24.49,0,0,0,166.48,131.41Z"/><path class="cls-2" d="M109.66,186.27A24.49,24.49,0,0,0,89,223.9L52.27,260.62H0v10H56.41L96,231.07a24.49,24.49,0,1,0,13.7-44.8Z"/><path class="cls-2" d="M166.48,243.09a24.49,24.49,0,0,0-5.34,48.39v41.14h10v-41a24.49,24.49,0,0,0-4.66-48.53Z"/><path class="cls-3" d="M533.24,202.56c-6.45-7.7-15.81-12.07-27.87-12.07-24.54,0-42.64,20-42.64,47.42s18.1,47.43,41.6,47.43c13.1,0,23.71-5.83,30.37-15.81l27,20.17c-12.27,17.48-33.07,25.59-53.24,25.59-46,0-79.45-30.16-79.45-77.38s33.48-77.37,79.45-77.37c16.43,0,37.23,5.62,49.71,21.63Z"/><path class="cls-3" d="M671.77,160.54c46,0,79.45,30.16,79.45,77.37s-33.49,77.38-79.45,77.38-79.46-30.16-79.46-77.38S625.8,160.54,671.77,160.54Zm0,124.8c27.66,0,45.76-20,45.76-47.43s-18.1-47.42-45.76-47.42S626,210.46,626,237.91,644.11,285.34,671.77,285.34Z"/><path class="cls-3" d="M794.07,164.29h49.09l33.9,96.09h.42l34.11-96.09h48.88V311.54H928V198.6h-.42L888.92,311.54H864.17L826.93,198.6h-.41V311.54H794.07Z"/><path class="cls-3" d="M1011.22,164.29h54.7c30.58,0,55.95,9.77,55.95,44.71,0,34.53-23.5,45.14-54.49,45.14h-23.71v57.4h-32.45Zm32.45,62.39h21.63c11.44,0,22.88-4,22.88-17.68,0-15.18-15.39-17.26-27.87-17.26h-16.64Z"/><path class="cls-3" d="M1287.23,254.76c0,34.74-21.22,60.53-62,60.53-41,0-62.19-25.79-62.19-60.53V164.29h32.45v89.22c0,18.1,12.47,31.83,29.74,31.83,17,0,29.53-13.73,29.53-31.83V164.29h32.45Z"/><path class="cls-3" d="M1366.48,193h-42v-28.7h116.47V193h-42V311.54h-32.45Z"/><path class="cls-3" d="M1479.42,164.29h100v30h-67.6v27.45h63.85v29.95h-63.85v29.95h71.34v30H1479.42Z"/><path class="cls-3" d="M1630,164.29h57c30.16,0,55.54,10.39,55.54,44.71,0,20.59-11,36.61-31.83,40.35l37.44,62.19h-38.89l-30.79-58.86h-16v58.86H1630Zm32.45,60.94h19.14c11.85,0,27.24-.42,27.24-16.43,0-14.77-13.31-17.06-25.16-17.06h-21.22Z"/><path class="cls-3" d="M1940.76,200.27c-5.2-6.66-15.6-9.78-23.5-9.78-9.15,0-21.84,4.16-21.84,15.19,0,26.83,67.8,9.56,67.8,61.15,0,32.86-26.41,48.46-56.78,48.46-18.93,0-35.56-5.62-49.5-18.51L1880,271.4a36.05,36.05,0,0,0,28.28,13.94c10.61,0,22.47-5,22.47-15.39,0-27-69.06-12.48-69.06-61.57,0-31.41,27.25-47.84,56.16-47.84,16.64,0,32.66,4.37,45.14,15.39Z"/><path class="cls-3" d="M2044.34,248.73,1989,164.29h40.35l31.2,55.11,33.07-55.11h38.48l-55.33,84.44v62.81h-32.45Z"/><path class="cls-3" d="M2236.53,200.27c-5.2-6.66-15.6-9.78-23.5-9.78-9.15,0-21.84,4.16-21.84,15.19,0,26.83,67.81,9.56,67.81,61.15,0,32.86-26.42,48.46-56.79,48.46-18.92,0-35.56-5.62-49.5-18.51l23.09-25.38a36.06,36.06,0,0,0,28.29,13.94c10.6,0,22.46-5,22.46-15.39,0-27-69.05-12.48-69.05-61.57,0-31.41,27.24-47.84,56.15-47.84,16.64,0,32.66,4.37,45.14,15.39Z"/><path class="cls-3" d="M2332.42,193h-42v-28.7h116.47V193h-42V311.54h-32.45Z"/><path class="cls-3" d="M2445.36,164.29h100v30h-67.6v27.45h63.85v29.95h-63.85v29.95h71.34v30H2445.36Z"/><path class="cls-3" d="M2596,164.29H2645l33.9,96.09h.42l34.11-96.09h48.88V311.54H2729.9V198.6h-.42L2690.8,311.54h-24.75L2628.82,198.6h-.42V311.54H2596Z"/><path class="cls-3" d="M2885.9,200.27c-5.2-6.66-15.6-9.78-23.5-9.78-9.16,0-21.84,4.16-21.84,15.19,0,26.83,67.8,9.56,67.8,61.15,0,32.86-26.41,48.46-56.78,48.46-18.93,0-35.57-5.62-49.5-18.51l23.09-25.38a36.05,36.05,0,0,0,28.28,13.94c10.61,0,22.47-5,22.47-15.39,0-27-69.06-12.48-69.06-61.57,0-31.41,27.25-47.84,56.16-47.84,16.64,0,32.66,4.37,45.13,15.39Z"/><path class="cls-4" d="M468.6,75.94c0,12.61-3.27,24.54-21.75,24.54-10.78,0-18.67-5-20.89-15.88l13.77-3.37a7,7,0,0,0,6.74,6c7,0,7.12-7.8,7.12-12.9V30.6h15Z"/><path class="cls-4" d="M543.49,28.87c21.27,0,36.77,14,36.77,35.81s-15.5,35.8-36.77,35.8-36.77-14-36.77-35.8S522.22,28.87,543.49,28.87Zm0,57.75c12.8,0,21.17-9.24,21.17-21.94s-8.37-22-21.17-22-21.18,9.24-21.18,22S530.68,86.62,543.49,86.62Z"/><path class="cls-4" d="M615.77,84.89l34.55-41H617V30.6h51.5V43.89l-33.88,41h35V98.75h-53.9ZM636.46,9.24l6.07,7.5,6-7.5h13L650,23.1H634.35L623.18,9.24Z"/><path class="cls-4" d="M709.42,30.6h46.3V44.46H724.44V57.17H754V71H724.44V84.89h33V98.75h-48Z"/><path class="cls-4" d="M798.93,30.6h45.72V44.46H814V58.32h28.39V72.18H814V98.75h-15Z"/><path class="cls-4" d="M975.36,47.25c-2.41-3.08-7.22-4.52-10.88-4.52-4.23,0-10.1,1.93-10.1,7,0,12.41,31.37,4.43,31.37,28.3,0,15.2-12.22,22.42-26.27,22.42-8.76,0-16.46-2.6-22.91-8.56l10.68-11.75a16.68,16.68,0,0,0,13.09,6.45c4.91,0,10.4-2.31,10.4-7.12,0-12.51-32-5.78-32-28.49,0-14.54,12.61-22.14,26-22.14,7.7,0,15.11,2,20.89,7.12Z"/><path class="cls-4" d="M1039,43.89h-19.44V30.6h53.9V43.89H1054V98.75h-15Z"/><path class="cls-4" d="M1110.49,30.6h46.3V44.46h-31.28V57.17h29.55V71h-29.55V84.89h33V98.75h-48Z"/><path class="cls-4" d="M1200,30.6h45.72V44.46H1215V58.32h28.39V72.18H1215V98.75h-15Z"/><path class="cls-4" d="M1302.51,30.6h12.42l29.64,68.15h-16.94l-5.87-14.44h-26.47l-5.68,14.44h-16.55Zm5.78,19.83L1300,71.61h16.65Z"/><path class="cls-4" d="M1380.28,30.6h20.41l29,47.36h.19V30.6h15V98.75h-19.64l-29.74-48.51h-.19V98.75h-15Z"/><path class="cls-4" d="M1544.77,30.6h15V98.75h-15Z"/><path class="cls-4" d="M1602.33,30.6h20.4l29,47.36h.19V30.6h15V98.75h-19.63l-29.74-48.51h-.2V98.75h-15Z"/><path class="cls-4" d="M1743.34,47.25c-2.41-3.08-7.22-4.52-10.88-4.52-4.24,0-10.11,1.93-10.11,7,0,12.41,31.38,4.43,31.38,28.3,0,15.2-12.22,22.42-26.28,22.42-8.76,0-16.46-2.6-22.9-8.56l10.68-11.75a16.66,16.66,0,0,0,13.09,6.45c4.91,0,10.4-2.31,10.4-7.12,0-12.51-32-5.78-32-28.49,0-14.54,12.61-22.14,26-22.14,7.7,0,15.11,2,20.89,7.12Z"/><path class="cls-4" d="M1807,43.89h-19.45V30.6h53.9V43.89H1822V98.75h-15Z"/><path class="cls-4" d="M1877.7,30.6h15V98.75h-15Z"/><path class="cls-4" d="M1948.44,43.89H1929V30.6h53.9V43.89h-19.44V98.75h-15Z"/><path class="cls-4" d="M2076.84,72.47c0,16.08-9.82,28-28.68,28s-28.78-11.93-28.78-28V30.6h15V71.9c0,8.37,5.78,14.72,13.77,14.72s13.67-6.35,13.67-14.72V30.6h15Z"/><path class="cls-4" d="M2132.76,43.89h-19.44V30.6h53.9V43.89h-19.44V98.75h-15Z"/><path class="cls-4" d="M2204.27,30.6h46.3V44.46h-31.28V57.17h29.55V71h-29.55V84.89h33V98.75h-48Z"/></g></g></svg>